<svg width="48" height="35" viewBox="0 0 48 35" fill="none" xmlns="http://www.w3.org/2000/svg">
<path fill-rule="evenodd" clip-rule="evenodd" d="M40.7838 29.3788L40.7838 8.28378C40.7838 6.99645 40.4099 5.09884 39.2443 3.47996C38.0237 1.7846 36.0024 0.5 33 0.5H32.9705H32.941H32.9115H32.882H32.8524H32.8229H32.7933H32.7637H32.734H32.7044H32.6747H32.645H32.6153H32.5855H32.5558H32.526H32.4962H32.4664H32.4365H32.4067H32.3768H32.3469H32.317H32.2871H32.2572H32.2272H32.1972H32.1672H32.1372H32.1072H32.0772H32.0471H32.017H31.9869H31.9568H31.9267H31.8966H31.8664H31.8363H31.8061H31.7759H31.7457H31.7155H31.6852H31.655H31.6247H31.5945H31.5642H31.5339H31.5036H31.4732H31.4429H31.4126H31.3822H31.3518H31.3215H31.2911H31.2607H31.2303H31.1998H31.1694H31.139H31.1085H31.078H31.0476H31.0171H30.9866H30.9561H30.9256H30.8951H30.8646H30.834H30.8035H30.773H30.7424H30.7119H30.6813H30.6507H30.6201H30.5896H30.559H30.5284H30.4978H30.4672H30.4366H30.406H30.3753H30.3447H30.3141H30.2834H30.2528H30.2222H30.1915H30.1609H30.1302H30.0996H30.0689H30.0383H30.0076H29.9769H29.9463H29.9156H29.885H29.8543H29.8236H29.7929H29.7623H29.7316H29.7009H29.6703H29.6396H29.6089H29.5783H29.5476H29.5169H29.4863H29.4556H29.4249H29.3943H29.3636H29.333H29.3023H29.2717H29.241H29.2104H29.1797H29.1491H29.1185H29.0878H29.0572H29.0266H28.996H28.9654H28.9347H28.9041H28.8735H28.843H28.8124H28.7818H28.7512H28.7207H28.6901H28.6595H28.629H28.5985H28.5679H28.5374H28.5069H28.4764H28.4459H28.4154H28.3849H28.3545H28.324H28.2935H28.2631H28.2327H28.2022H28.1718H28.1414H28.111H28.0806H28.0503H28.0199H27.9896H27.9592H27.9289H27.8986H27.8683H27.838H27.8077H27.7775H27.7472H27.717H27.6868H27.6565H27.6264H27.5962H27.566H27.5358H27.5057H27.4756H27.4455H27.4154H27.3853H27.3553H27.3252H27.2952H27.2652H27.2352H27.2052H27.1752H27.1453H27.1154H27.0854H27.0555H27.0257H26.9958H26.966H26.9362H26.9064H26.8766H26.8468H26.8171H26.7874H26.7577H26.728H26.6983H26.6687H26.639H26.6094H26.5799H26.5503H26.5208H26.4912H26.4618H26.4323H26.4028H26.3734H26.344H26.3146H26.2853H26.2559H26.2266H26.1973H26.1681H26.1388H26.1096H26.0804H26.0513H26.0221H25.993H25.9639H25.9349H25.9058H25.8768H25.8478H25.8189H25.7899H25.761H25.7322H25.7033H25.6745H25.6457H25.6169H25.5882H25.5595H25.5308H25.5021H25.4735H25.4449H25.4163H25.3878H25.3593H25.3308H25.3024H25.2739H25.2456H25.2172H25.1889H25.1606H25.1323H25.1041H25.0759H25.0477H25.0196H24.9915H24.9634H24.9354H24.9074H24.8794H24.8515H24.8236H24.7957H24.7679H24.7401H24.7123H24.6846H24.6569H24.6292H24.6016H24.574H24.5464H24.5189H24.4914H24.464H24.4366H24.4092H24.3819H24.3546H24.3273H24.3001H24.2729H24.2457H24.2186H24.1916H24.1645H24.1375H24.1106H24.0837H24.0568H24.0299H24.0031H23.9764H23.9497H23.923H23.8963H23.8698H23.8432H23.8167H23.7902H23.7638H23.7374H23.711H23.6847H23.6585H23.6323H23.6061H23.58H23.5539H23.5278H23.5018H23.4759H23.4499H23.4241H23.3983H23.3725H23.3467H23.3211H23.2954H23.2698H23.2443H23.2187H23.1933H23.1679H23.1425H23.1172H23.0919H23.0667H23.0415H23.0164H22.9913H22.9663H22.9413H22.9163H22.8914H22.8666H22.8418H22.8171H22.7924H22.7677H22.7431H22.7186H22.6941H22.6697H22.6453H22.6209H22.5966H22.5724H22.5482H22.5241H22.5H22.476H22.452H22.4281H22.4042H22.3804H22.3566H22.3329H22.3092H22.2856H22.2621H22.2386H22.2151H22.1917H22.1684H22.1451H22.1219H22.0987H22.0756H22.0526H22.0296H22.0066H21.9837H21.9609H21.9381H21.9154H21.8928H21.8702H21.8476H21.8251H21.8027H21.7803H21.758H21.7358H21.7136H21.6915H21.6694H21.6474H21.6254H21.6035H21.5817H21.5599H21.5382H21.5165H21.4949H21.4734H21.452H21.4305H21.4092H21.3879H21.3667H21.3455H21.3244H21.3034H21.2824H21.2615H21.2407H21.2199H21.1992H21.1785H21.158H21.1374H21.117H21.0966H21.0763H21.056H21.0358H21.0157H20.9956H20.9756H20.9557H20.9358H20.916H20.8963H20.8766H20.857H20.8375H20.818H20.7986H20.7793H20.7601H20.7409H20.7218H20.7027H20.6837H20.6648H20.646H20.6272H20.6085H20.5899H20.5713H20.5528H20.5344H20.5161H20.4978H20.4796H20.4615H20.4434H20.4254H20.4075H20.3896H20.3719H20.3542H20.3366H20.319H20.3015H20.2841H20.2668H20.2495H20.2324H20.2153H20.1982H20.1813H20.1644H20.1476H20.1308H20.1142H20.0976H20.0811H20.0647H20.0483H20.0321H20.0159H19.9998H19.9837H19.9678H19.9519H19.9361H19.9203H19.9047H19.8891H19.8736H19.8582H19.8429H19.8276H19.8125H19.7974H19.7824H19.7674H19.7526H19.7378H19.7231H19.7085H19.694H19.6795H19.6652H19.6509H19.6367H19.6226H19.6085H19.5946C18.7662 0.5 18.0946 1.17157 18.0946 2C18.0946 2.82842 18.7662 3.5 19.5946 3.5H19.6085H19.6226H19.6367H19.6509H19.6652H19.6795H19.694H19.7085H19.7231H19.7378H19.7526H19.7674H19.7824H19.7974H19.8125H19.8276H19.8429H19.8582H19.8736H19.8891H19.9047H19.9203H19.9361H19.9519H19.9678H19.9837H19.9998H20.0159H20.0321H20.0483H20.0647H20.0811H20.0976H20.1142H20.1308H20.1476L20.1644 3.5H20.1813H20.1982H20.2153H20.2324H20.2495H20.2668H20.2841H20.3015H20.319H20.3366H20.3542H20.3719H20.3896H20.4075H20.4254H20.4434H20.4615H20.4796H20.4978H20.5161H20.5344H20.5528H20.5713H20.5899H20.6085H20.6272H20.646H20.6648H20.6837H20.7027H20.7218H20.7409H20.7601H20.7793H20.7986H20.818H20.8375H20.857H20.8766H20.8963H20.916H20.9358H20.9557H20.9756H20.9956H21.0157H21.0358H21.056H21.0763H21.0966H21.117H21.1374H21.158H21.1785H21.1992H21.2199H21.2407H21.2615H21.2824H21.3034H21.3244H21.3455H21.3667H21.3879H21.4092H21.4305H21.452H21.4734H21.4949H21.5165H21.5382H21.5599H21.5817H21.6035H21.6254H21.6474H21.6694H21.6915H21.7136H21.7358H21.758H21.7803H21.8027H21.8251H21.8476H21.8702H21.8928H21.9154H21.9381H21.9609H21.9837H22.0066H22.0296H22.0526H22.0756H22.0987H22.1219H22.1451H22.1684H22.1917H22.2151H22.2386H22.2621H22.2856H22.3092H22.3329H22.3566H22.3804H22.4042H22.4281H22.452H22.476H22.5H22.5241H22.5482H22.5724H22.5966H22.6209H22.6453H22.6697H22.6941H22.7186H22.7431H22.7677H22.7924H22.8171H22.8418H22.8666L22.8914 3.5H22.9163H22.9413H22.9663H22.9913H23.0164H23.0415H23.0667H23.0919H23.1172H23.1425H23.1679H23.1933H23.2187H23.2443H23.2698H23.2954H23.3211H23.3467H23.3725H23.3983H23.4241H23.4499H23.4759H23.5018H23.5278H23.5539H23.58H23.6061H23.6323H23.6585H23.6847H23.711H23.7374H23.7638H23.7902H23.8167H23.8432H23.8698H23.8963H23.923H23.9497H23.9764H24.0031H24.0299H24.0568H24.0837H24.1106H24.1375H24.1645H24.1916H24.2186H24.2457H24.2729H24.3001H24.3273H24.3546H24.3819H24.4092H24.4366H24.464H24.4914H24.5189H24.5464H24.574H24.6016H24.6292H24.6569H24.6846H24.7123H24.7401H24.7679H24.7957H24.8236H24.8515H24.8794H24.9074H24.9354H24.9634H24.9915H25.0196H25.0477H25.0759H25.1041H25.1323H25.1606H25.1889H25.2172H25.2456H25.2739H25.3024H25.3308H25.3593H25.3878H25.4163H25.4449H25.4735H25.5021H25.5308H25.5595H25.5882L25.6169 3.5H25.6457H25.6745H25.7033H25.7322H25.761H25.7899H25.8189H25.8478H25.8768H25.9058H25.9349H25.9639H25.993H26.0221H26.0513H26.0804H26.1096H26.1388H26.1681H26.1973H26.2266H26.2559H26.2853H26.3146H26.344H26.3734H26.4028H26.4323H26.4618H26.4912H26.5208H26.5503H26.5799H26.6094H26.639H26.6687H26.6983H26.728H26.7577H26.7874H26.8171H26.8468H26.8766H26.9064H26.9362H26.966H26.9958H27.0257H27.0555H27.0854H27.1154H27.1453H27.1752H27.2052H27.2352H27.2652H27.2952H27.3252H27.3553H27.3853H27.4154H27.4455H27.4756H27.5057H27.5358H27.566H27.5962H27.6264H27.6565H27.6868H27.717H27.7472H27.7775H27.8077H27.838H27.8683H27.8986H27.9289H27.9592H27.9896H28.0199H28.0503H28.0806H28.111H28.1414H28.1718H28.2022H28.2327H28.2631H28.2935H28.324L28.3545 3.5H28.3849H28.4154H28.4459H28.4764H28.5069H28.5374H28.5679H28.5985H28.629H28.6595H28.6901H28.7207H28.7512H28.7818H28.8124H28.843H28.8735H28.9041H28.9347H28.9654H28.996H29.0266H29.0572H29.0878H29.1185H29.1491H29.1797H29.2104H29.241H29.2717H29.3023H29.333H29.3636H29.3943H29.4249H29.4556H29.4863H29.5169H29.5476H29.5783H29.6089H29.6396H29.6703H29.7009H29.7316H29.7623H29.7929H29.8236H29.8543H29.885H29.9156H29.9463H29.9769H30.0076H30.0383H30.0689H30.0996H30.1302H30.1609H30.1915H30.2222H30.2528H30.2834H30.3141H30.3447H30.3753H30.406H30.4366H30.4672H30.4978H30.5284H30.559H30.5896H30.6201H30.6507H30.6813H30.7119H30.7424H30.773H30.8035H30.834H30.8646H30.8951H30.9256H30.9561H30.9866H31.0171H31.0476L31.078 3.5H31.1085H31.139H31.1694H31.1998H31.2303H31.2607H31.2911H31.3215H31.3518H31.3822H31.4126H31.4429H31.4732H31.5036H31.5339H31.5642H31.5945H31.6247H31.655H31.6852H31.7155H31.7457H31.7759H31.8061H31.8363H31.8664H31.8966H31.9267H31.9568H31.9869H32.017H32.0471H32.0772H32.1072H32.1372H32.1672H32.1972H32.2272H32.2572H32.2871H32.317H32.3469H32.3768H32.4067H32.4365H32.4664H32.4962H32.526H32.5558H32.5855H32.6153H32.645H32.6747H32.7044H32.734H32.7637H32.7933H32.8229H32.8524H32.882H32.9115H32.941H32.9705H33C35.0246 3.5 36.1453 4.31 36.8097 5.23288C37.5293 6.23224 37.7838 7.47652 37.7838 8.28378L37.7838 29.3786L33.2229 24.8177C32.6371 24.2319 31.6874 24.2319 31.1016 24.8177C30.5158 25.4035 30.5158 26.3533 31.1016 26.939L38.2162 34.0536C38.8058 34.6433 39.7619 34.6433 40.3516 34.0536L47.4662 26.939C48.052 26.3533 48.052 25.4035 47.4662 24.8177C46.8804 24.2319 45.9306 24.2319 45.3449 24.8177L40.7838 29.3788ZM10.6216 5.62132L15.1826 10.1823C15.7684 10.7681 16.7181 10.7681 17.3039 10.1823C17.8897 9.59649 17.8897 8.64675 17.3039 8.06096L10.1894 0.946411C9.59967 0.356729 8.64359 0.356709 8.05389 0.946411L0.93934 8.06096C0.353553 8.64675 0.353553 9.59649 0.93934 10.1823C1.52513 10.7681 2.47487 10.7681 3.06066 10.1823L7.62162 5.62132V26.7162C7.62162 28.0035 7.99548 29.9012 9.16108 31.52C10.3817 33.2154 12.403 34.5 15.4054 34.5H15.4349H15.4644H15.4939H15.5234H15.553H15.5825H15.6121H15.6417H15.6714H15.701H15.7307H15.7604H15.7901H15.8199H15.8496H15.8794H15.9092H15.939H15.9689H15.9987H16.0286H16.0585H16.0884H16.1183H16.1482H16.1782H16.2082H16.2382H16.2682H16.2982H16.3282H16.3583H16.3884H16.4185H16.4486H16.4787H16.5088H16.539H16.5691H16.5993H16.6295H16.6597H16.6899H16.7202H16.7504H16.7807H16.8109H16.8412H16.8715H16.9018H16.9322H16.9625H16.9928H17.0232H17.0536H17.0839H17.1143H17.1447H17.1752H17.2056H17.236H17.2664H17.2969H17.3274H17.3578H17.3883H17.4188H17.4493H17.4798H17.5103H17.5408H17.5714H17.6019H17.6324H17.663H17.6935H17.7241H17.7547H17.7853H17.8158H17.8464H17.877H17.9076H17.9382H17.9688H17.9995H18.0301H18.0607H18.0913H18.122H18.1526H18.1832H18.2139H18.2445H18.2752H18.3058H18.3365H18.3671H18.3978H18.4285H18.4591H18.4898H18.5205H18.5511H18.5818H18.6125H18.6431H18.6738H18.7045H18.7351H18.7658H18.7965H18.8271H18.8578H18.8885H18.9191H18.9498H18.9805H19.0111H19.0418H19.0724H19.1031H19.1337H19.1644H19.195H19.2257H19.2563H19.2869H19.3176H19.3482H19.3788H19.4094H19.4401H19.4707H19.5013H19.5319H19.5624H19.593H19.6236H19.6542H19.6847H19.7153H19.7459H19.7764H19.8069H19.8375H19.868H19.8985H19.929H19.9595H19.99H20.0205H20.0509H20.0814H20.1119H20.1423H20.1727H20.2032H20.2336H20.264H20.2944H20.3248H20.3551H20.3855H20.4158H20.4462H20.4765H20.5068H20.5371H20.5674H20.5977H20.6279H20.6582H20.6884H20.7186H20.7489H20.7791H20.8092H20.8394H20.8696H20.8997H20.9298H20.9599H20.99H21.0201H21.0502H21.0802H21.1102H21.1402H21.1702H21.2002H21.2302H21.2601H21.2901H21.32H21.3499H21.3797H21.4096H21.4394H21.4692H21.499H21.5288H21.5586H21.5883H21.618H21.6478H21.6774H21.7071H21.7367H21.7664H21.796H21.8255H21.8551H21.8846H21.9142H21.9436H21.9731H22.0026H22.032H22.0614H22.0908H22.1201H22.1495H22.1788H22.2081H22.2373H22.2666H22.2958H22.325H22.3541H22.3833H22.4124H22.4415H22.4705H22.4996H22.5286H22.5576H22.5865H22.6155H22.6444H22.6733H22.7021H22.7309H22.7597H22.7885H22.8172H22.8459H22.8746H22.9033H22.9319H22.9605H22.9891H23.0176H23.0461H23.0746H23.103H23.1315H23.1598H23.1882H23.2165H23.2448H23.2731H23.3013H23.3295H23.3577H23.3858H23.4139H23.442H23.47H23.498H23.526H23.5539H23.5818H23.6097H23.6375H23.6653H23.6931H23.7208H23.7485H23.7762H23.8038H23.8314H23.859H23.8865H23.914H23.9414H23.9688H23.9962H24.0235H24.0508H24.0781H24.1053H24.1325H24.1597H24.1868H24.2139H24.2409H24.2679H24.2948H24.3218H24.3486H24.3755H24.4023H24.429H24.4557H24.4824H24.5091H24.5357H24.5622H24.5887H24.6152H24.6416H24.668H24.6944H24.7207H24.7469H24.7731H24.7993H24.8254H24.8515H24.8776H24.9036H24.9295H24.9555H24.9813H25.0071H25.0329H25.0587H25.0844H25.11H25.1356H25.1611H25.1867H25.2121H25.2375H25.2629H25.2882H25.3135H25.3387H25.3639H25.389H25.4141H25.4391H25.4641H25.4891H25.514H25.5388H25.5636H25.5883H25.613H25.6377H25.6623H25.6868H25.7113H25.7357H25.7601H25.7845H25.8088H25.833H25.8572H25.8813H25.9054H25.9294H25.9534H25.9773H26.0012H26.025H26.0488H26.0725H26.0962H26.1198H26.1433H26.1668H26.1903H26.2137H26.237H26.2603H26.2835H26.3067H26.3298H26.3528H26.3758H26.3988H26.4217H26.4445H26.4673H26.49H26.5126H26.5352H26.5578H26.5803H26.6027H26.6251H26.6474H26.6696H26.6918H26.714H26.736H26.758H26.78H26.8019H26.8237H26.8455H26.8672H26.8889H26.9105H26.932H26.9535H26.9749H26.9962H27.0175H27.0387H27.0599H27.081H27.102H27.123H27.1439H27.1647H27.1855H27.2062H27.2269H27.2474H27.268H27.2884H27.3088H27.3291H27.3494H27.3696H27.3897H27.4098H27.4298H27.4497H27.4696H27.4894H27.5091H27.5288H27.5484H27.5679H27.5874H27.6068H27.6261H27.6453H27.6645H27.6836H27.7027H27.7217H27.7406H27.7594H27.7782H27.7969H27.8155H27.8341H27.8526H27.871H27.8893H27.9076H27.9258H27.9439H27.962H27.98H27.9979H28.0158H28.0335H28.0512H28.0688H28.0864H28.1039H28.1213H28.1386H28.1559H28.173H28.1902H28.2072H28.2241H28.241H28.2578H28.2746H28.2912H28.3078H28.3243H28.3407H28.3571H28.3733H28.3895H28.4056H28.4217H28.4376H28.4535H28.4693H28.4851H28.5007H28.5163H28.5318H28.5472H28.5625H28.5778H28.5929H28.608H28.623H28.638H28.6528H28.6676H28.6823H28.6969H28.7114H28.7259H28.7402H28.7545H28.7687H28.7828H28.7969H28.8108C29.6392 34.5 30.3108 33.8284 30.3108 33C30.3108 32.1716 29.6392 31.5 28.8108 31.5H28.7969H28.7828H28.7687H28.7545H28.7402H28.7259H28.7114H28.6969H28.6823H28.6676H28.6528H28.638H28.623H28.608H28.5929H28.5778H28.5625H28.5472H28.5318H28.5163H28.5007H28.4851H28.4693H28.4535H28.4376H28.4217H28.4056H28.3895H28.3733H28.3571H28.3407H28.3243H28.3078H28.2912H28.2746H28.2578H28.241H28.2241H28.2072H28.1902H28.173H28.1559H28.1386H28.1213H28.1039H28.0864H28.0688H28.0512H28.0335H28.0158H27.9979H27.98H27.962H27.9439H27.9258H27.9076H27.8893H27.871H27.8526H27.8341H27.8155H27.7969H27.7782H27.7594H27.7406H27.7217H27.7027H27.6836H27.6645H27.6453H27.6261H27.6068H27.5874H27.5679H27.5484H27.5288H27.5091H27.4894H27.4696H27.4497H27.4298H27.4098H27.3897H27.3696H27.3494H27.3291H27.3088H27.2884H27.268H27.2474H27.2269H27.2062H27.1855H27.1647H27.1439H27.123H27.102H27.081H27.0599H27.0387H27.0175H26.9962H26.9749H26.9535H26.932H26.9105H26.8889H26.8672H26.8455H26.8237H26.8019H26.78H26.758H26.736H26.714H26.6918H26.6696H26.6474H26.6251H26.6027H26.5803H26.5578H26.5352H26.5126H26.49H26.4673H26.4445H26.4217H26.3988H26.3758H26.3528H26.3298H26.3067H26.2835H26.2603H26.237H26.2137H26.1903H26.1668H26.1433H26.1198H26.0962H26.0725H26.0488H26.025H26.0012H25.9773H25.9534H25.9294H25.9054H25.8813H25.8572H25.833H25.8088H25.7845H25.7601H25.7357H25.7113H25.6868H25.6623H25.6377H25.613H25.5883H25.5636H25.5388H25.514H25.4891H25.4641H25.4391H25.4141H25.389H25.3639H25.3387H25.3135H25.2882H25.2629H25.2375H25.2121H25.1867H25.1611H25.1356H25.11H25.0844H25.0587H25.0329H25.0071H24.9813H24.9555H24.9295H24.9036H24.8776H24.8515H24.8254H24.7993H24.7731H24.7469H24.7207H24.6944H24.668H24.6416H24.6152H24.5887H24.5622H24.5357H24.5091H24.4824H24.4557H24.429H24.4023H24.3755H24.3486H24.3218H24.2948H24.2679H24.2409H24.2139H24.1868H24.1597H24.1325H24.1053H24.0781H24.0508H24.0235H23.9962H23.9688H23.9414H23.914H23.8865H23.859H23.8314H23.8038H23.7762H23.7485H23.7208H23.6931H23.6653H23.6375H23.6097H23.5818H23.5539H23.526H23.498H23.47H23.442H23.4139H23.3858H23.3577H23.3295H23.3013H23.2731H23.2448H23.2165H23.1882H23.1598H23.1315H23.103H23.0746H23.0461H23.0176H22.9891H22.9605H22.9319H22.9033H22.8746H22.8459H22.8172H22.7885H22.7597H22.7309H22.7021H22.6733H22.6444H22.6155H22.5865H22.5576H22.5286H22.4996H22.4705H22.4415H22.4124H22.3833H22.3541H22.325H22.2958H22.2666H22.2373H22.2081H22.1788H22.1495H22.1201H22.0908H22.0614H22.032H22.0026H21.9731H21.9436H21.9142H21.8846H21.8551H21.8255H21.796H21.7664H21.7367H21.7071H21.6774H21.6478H21.618H21.5883H21.5586H21.5288H21.499H21.4692H21.4394H21.4096H21.3797H21.3499H21.32H21.2901H21.2601H21.2302H21.2002H21.1702H21.1402H21.1102H21.0802H21.0502H21.0201H20.99H20.9599H20.9298H20.8997H20.8696H20.8394H20.8092H20.7791H20.7489H20.7186H20.6884H20.6582H20.6279H20.5977H20.5674H20.5371H20.5068H20.4765H20.4462H20.4158H20.3855H20.3551H20.3248H20.2944H20.264H20.2336H20.2032H20.1727H20.1423H20.1119H20.0814H20.0509H20.0205H19.99H19.9595H19.929H19.8985H19.868H19.8375H19.8069H19.7764H19.7459H19.7153H19.6847H19.6542H19.6236H19.593H19.5624H19.5319H19.5013H19.4707H19.4401H19.4094H19.3788H19.3482H19.3176H19.2869H19.2563H19.2257H19.195H19.1644H19.1337H19.1031H19.0724H19.0418H19.0111H18.9805H18.9498H18.9191H18.8885H18.8578H18.8271H18.7965H18.7658H18.7351H18.7045H18.6738H18.6431H18.6125H18.5818H18.5511H18.5205H18.4898H18.4591H18.4285H18.3978H18.3671H18.3365H18.3058H18.2752H18.2445H18.2139H18.1832H18.1526H18.122H18.0913H18.0607H18.0301H17.9995H17.9688H17.9382H17.9076H17.877H17.8464H17.8158H17.7853H17.7547H17.7241H17.6935H17.663H17.6324H17.6019H17.5714H17.5408H17.5103H17.4798H17.4493H17.4188H17.3883H17.3578H17.3274H17.2969H17.2664H17.236H17.2056H17.1752H17.1447H17.1143H17.0839H17.0536H17.0232H16.9928H16.9625H16.9322H16.9018H16.8715H16.8412H16.8109H16.7807H16.7504H16.7202H16.6899H16.6597H16.6295H16.5993H16.5691H16.539H16.5088H16.4787H16.4486H16.4185H16.3884H16.3583H16.3282H16.2982H16.2682H16.2382H16.2082H16.1782H16.1482H16.1183H16.0884H16.0585H16.0286H15.9987H15.9689H15.939H15.9092H15.8794H15.8496H15.8199H15.7901H15.7604H15.7307H15.701H15.6714H15.6417H15.6121H15.5825H15.553H15.5234H15.4939H15.4644H15.4349H15.4054C13.3808 31.5 12.2602 30.69 11.5957 29.7671C10.8761 28.7678 10.6216 27.5235 10.6216 26.7162V5.62132Z" fill="white"/>
</svg>
