<svg width="30" height="35" viewBox="0 0 30 35" fill="none" xmlns="http://www.w3.org/2000/svg">
<path fill-rule="evenodd" clip-rule="evenodd" d="M12.8425 2C12.8425 1.17157 12.171 0.5 11.3425 0.5C10.5141 0.5 9.84253 1.17157 9.84253 2V33C9.84253 33.8284 10.5141 34.5 11.3425 34.5C12.171 34.5 12.8425 33.8284 12.8425 33V2ZM3.5 16.0137C3.5 15.1852 2.82843 14.5137 2 14.5137C1.17157 14.5137 0.5 15.1852 0.5 16.0137V33C0.5 33.8284 1.17157 34.5 2 34.5C2.82843 34.5 3.5 33.8284 3.5 33V16.0137ZM19.4109 19.6094C20.2393 19.6094 20.9109 20.2809 20.9109 21.1094V32.9998C20.9109 33.8282 20.2393 34.4998 19.4109 34.4998C18.5825 34.4998 17.9109 33.8282 17.9109 32.9998V21.1094C17.9109 20.2809 18.5825 19.6094 19.4109 19.6094ZM29.8289 11.7671C29.8289 10.9387 29.1573 10.2671 28.3289 10.2671C27.5004 10.2671 26.8289 10.9387 26.8289 11.7671V33C26.8289 33.8284 27.5004 34.5 28.3289 34.5C29.1573 34.5 29.8289 33.8284 29.8289 33V11.7671Z" fill="white"/>
</svg>
