<svg width="513" height="134" viewBox="0 0 513 134" fill="none" xmlns="http://www.w3.org/2000/svg">
<path d="M173.41 71V29.784H190.114C196.215 29.784 200.738 31.4053 203.682 34.648C206.626 37.848 208.098 43.1813 208.098 50.648C208.098 57.688 206.647 62.8507 203.746 66.136C200.844 69.3787 196.3 71 190.114 71H173.41ZM180.386 65.624H189.026C191.714 65.624 193.954 65.24 195.746 64.472C197.538 63.6613 198.882 62.168 199.778 59.992C200.674 57.816 201.122 54.7013 201.122 50.648C201.122 46.5947 200.716 43.4587 199.906 41.24C199.095 39.0213 197.794 37.464 196.002 36.568C194.252 35.672 191.927 35.224 189.026 35.224H180.386V65.624ZM230.332 71.64C225.042 71.64 220.946 70.3387 218.044 67.736C215.143 65.1333 213.692 61.144 213.692 55.768C213.692 50.904 214.93 47.064 217.404 44.248C219.879 41.432 223.634 40.024 228.668 40.024C233.276 40.024 236.732 41.24 239.036 43.672C241.383 46.0613 242.556 49.1547 242.556 52.952V58.584H220.348C220.69 61.528 221.756 63.5547 223.548 64.664C225.34 65.7733 228.071 66.328 231.74 66.328C233.276 66.328 234.855 66.1787 236.476 65.88C238.098 65.5813 239.506 65.1973 240.7 64.728V69.848C239.335 70.4453 237.756 70.8933 235.964 71.192C234.215 71.4907 232.338 71.64 230.332 71.64ZM220.348 54.04H236.412V51.928C236.412 49.8373 235.836 48.216 234.684 47.064C233.532 45.8693 231.591 45.272 228.86 45.272C225.618 45.272 223.378 45.976 222.14 47.384C220.946 48.792 220.348 51.0107 220.348 54.04ZM259.147 71.64C257.056 71.64 255.051 71.4907 253.131 71.192C251.253 70.8933 249.696 70.5307 248.459 70.104V64.216C249.909 64.7707 251.509 65.1973 253.259 65.496C255.008 65.7947 256.672 65.944 258.251 65.944C260.64 65.944 262.347 65.7307 263.371 65.304C264.395 64.8773 264.907 64.0453 264.907 62.808C264.907 61.912 264.587 61.208 263.947 60.696C263.349 60.184 262.432 59.7147 261.195 59.288C260 58.8613 258.464 58.3493 256.587 57.752C254.795 57.1547 253.237 56.5147 251.915 55.832C250.592 55.1067 249.568 54.1893 248.843 53.08C248.117 51.9707 247.755 50.52 247.755 48.728C247.755 45.9547 248.757 43.8213 250.763 42.328C252.768 40.792 255.989 40.024 260.427 40.024C262.176 40.024 263.84 40.152 265.419 40.408C266.997 40.664 268.341 40.984 269.451 41.368V47.192C268.256 46.7227 266.933 46.36 265.483 46.104C264.075 45.848 262.752 45.72 261.515 45.72C259.296 45.72 257.611 45.912 256.459 46.296C255.349 46.68 254.795 47.448 254.795 48.6C254.795 49.7947 255.371 50.648 256.523 51.16C257.717 51.6293 259.616 52.2907 262.219 53.144C264.608 53.8693 266.507 54.6373 267.915 55.448C269.323 56.2587 270.325 57.24 270.923 58.392C271.563 59.5013 271.883 60.952 271.883 62.744C271.883 65.7307 270.795 67.9707 268.619 69.464C266.443 70.9147 263.285 71.64 259.147 71.64ZM281.282 34.328V28.568H288.898V34.328H281.282ZM281.858 71V45.976H277.25L277.89 40.664H288.834V71H281.858ZM309.26 82.264C306.999 82.264 304.738 82.1147 302.476 81.816C300.215 81.56 298.295 81.1547 296.716 80.6V75.224C298.423 75.7787 300.386 76.2053 302.604 76.504C304.823 76.8027 306.935 76.952 308.94 76.952C312.012 76.952 314.252 76.7813 315.66 76.44C317.068 76.0987 317.772 75.3307 317.772 74.136C317.772 73.24 317.431 72.6 316.748 72.216C316.066 71.8747 314.764 71.704 312.844 71.704H304.652C299.148 71.704 296.396 69.7627 296.396 65.88C296.396 64.6427 296.759 63.4907 297.484 62.424C298.21 61.3573 299.362 60.5467 300.94 59.992C299.191 59.1387 297.89 57.9653 297.036 56.472C296.226 54.9787 295.82 53.1867 295.82 51.096C295.82 47.2133 296.972 44.3973 299.276 42.648C301.623 40.8987 305.122 40.024 309.772 40.024C310.754 40.024 311.778 40.1093 312.844 40.28C313.911 40.408 314.743 40.536 315.34 40.664H326.476L326.284 45.208H321.164C321.975 45.8907 322.572 46.744 322.956 47.768C323.34 48.792 323.532 49.9013 323.532 51.096C323.532 54.3387 322.551 56.8987 320.588 58.776C318.626 60.6107 315.66 61.528 311.692 61.528C311.01 61.528 310.37 61.5067 309.772 61.464C309.218 61.3787 308.599 61.2933 307.916 61.208C306.636 61.336 305.484 61.6773 304.46 62.232C303.436 62.7867 302.924 63.5333 302.924 64.472C302.924 65.112 303.18 65.5813 303.692 65.88C304.204 66.136 305.058 66.264 306.252 66.264H314.764C317.794 66.264 320.119 66.9253 321.74 68.248C323.404 69.528 324.236 71.4053 324.236 73.88C324.236 76.8667 322.935 79 320.332 80.28C317.772 81.6027 314.082 82.264 309.26 82.264ZM309.772 57.112C312.546 57.112 314.466 56.6427 315.532 55.704C316.642 54.7653 317.196 53.1653 317.196 50.904C317.196 48.6427 316.642 47 315.532 45.976C314.466 44.952 312.546 44.44 309.772 44.44C307.17 44.44 305.271 44.9307 304.076 45.912C302.882 46.8933 302.284 48.5573 302.284 50.904C302.284 53.08 302.839 54.6587 303.948 55.64C305.1 56.6213 307.042 57.112 309.772 57.112ZM330.785 71V40.664H337.185L337.505 43.864C338.87 42.7973 340.491 41.9013 342.369 41.176C344.289 40.408 346.401 40.024 348.705 40.024C352.63 40.024 355.489 40.9413 357.281 42.776C359.073 44.6107 359.969 47.4693 359.969 51.352V71H353.057V51.672C353.057 49.3253 352.566 47.6827 351.585 46.744C350.646 45.8053 348.854 45.336 346.209 45.336C344.63 45.336 343.073 45.656 341.537 46.296C340.043 46.936 338.785 47.768 337.761 48.792V71H330.785ZM376.319 71.64C374.399 71.64 372.607 71.2987 370.943 70.616C369.322 69.9333 368.021 68.9093 367.039 67.544C366.058 66.136 365.567 64.408 365.567 62.36C365.567 59.4587 366.549 57.1333 368.511 55.384C370.517 53.592 373.589 52.696 377.727 52.696H387.455V51.352C387.455 49.9013 387.221 48.7493 386.751 47.896C386.325 47.0427 385.514 46.424 384.319 46.04C383.167 45.656 381.461 45.464 379.199 45.464C375.615 45.464 372.266 45.9973 369.151 47.064V41.88C370.517 41.3253 372.181 40.8773 374.143 40.536C376.106 40.1947 378.218 40.024 380.479 40.024C384.917 40.024 388.287 40.92 390.591 42.712C392.938 44.504 394.111 47.4267 394.111 51.48V71H388.159L387.711 67.928C386.474 69.1227 384.938 70.04 383.103 70.68C381.311 71.32 379.05 71.64 376.319 71.64ZM378.175 66.648C380.266 66.648 382.079 66.3067 383.615 65.624C385.194 64.8987 386.474 63.9387 387.455 62.744V57.432H377.855C375.807 57.432 374.314 57.8373 373.375 58.648C372.479 59.416 372.031 60.6107 372.031 62.232C372.031 63.8107 372.565 64.9413 373.631 65.624C374.698 66.3067 376.213 66.648 378.175 66.648ZM413.431 71.64C410.189 71.64 407.757 70.7867 406.135 69.08C404.557 67.3307 403.767 64.9627 403.767 61.976V46.104H399.287V40.664H403.767V33.688L410.679 31.576V40.664H418.743L418.295 46.104H410.679V61.592C410.679 63.3413 411.085 64.5787 411.895 65.304C412.706 65.9867 414.029 66.328 415.863 66.328C417.015 66.328 418.231 66.1147 419.511 65.688V70.616C417.847 71.2987 415.821 71.64 413.431 71.64ZM435.791 71.64C432.165 71.64 429.37 70.6373 427.407 68.632C425.487 66.6267 424.527 63.6827 424.527 59.8V40.664H431.503V59.8C431.503 62.0613 432.058 63.7253 433.167 64.792C434.277 65.8587 435.983 66.392 438.287 66.392C439.994 66.392 441.573 66.072 443.023 65.432C444.474 64.792 445.733 63.9387 446.799 62.872V40.664H453.711V71H447.375L447.055 67.864C445.69 68.9307 444.069 69.8267 442.191 70.552C440.314 71.2773 438.181 71.64 435.791 71.64ZM461.847 71V40.664H468.247L468.567 43.864C470.061 42.6693 471.703 41.7307 473.495 41.048C475.287 40.3653 477.207 40.024 479.255 40.024C481.431 40.024 483.117 40.3867 484.311 41.112C485.549 41.7947 486.487 42.7547 487.127 43.992C488.535 42.84 490.157 41.9013 491.991 41.176C493.826 40.408 496.023 40.024 498.583 40.024C502.082 40.024 504.663 40.92 506.327 42.712C507.991 44.504 508.823 47.256 508.823 50.968V71H501.975V51.672C501.975 49.3253 501.485 47.6827 500.503 46.744C499.522 45.8053 497.922 45.336 495.703 45.336C494.253 45.336 492.866 45.592 491.543 46.104C490.263 46.616 489.154 47.384 488.215 48.408C488.343 48.8773 488.429 49.368 488.471 49.88C488.514 50.392 488.535 50.9467 488.535 51.544V71H482.071V51.736C482.071 49.5173 481.687 47.896 480.919 46.872C480.151 45.848 478.701 45.336 476.567 45.336C475.074 45.336 473.645 45.6987 472.279 46.424C470.957 47.1067 469.762 47.9387 468.695 48.92V71H461.847Z" fill="white"/>
<path d="M185.764 99H184.002C183.898 98.4934 183.716 98.0483 183.456 97.6648C183.2 97.2812 182.887 96.9593 182.518 96.6989C182.153 96.4337 181.749 96.2348 181.304 96.1023C180.858 95.9697 180.394 95.9034 179.911 95.9034C179.031 95.9034 178.233 96.1259 177.518 96.571C176.808 97.0161 176.242 97.6719 175.821 98.5384C175.404 99.4048 175.196 100.468 175.196 101.727C175.196 102.987 175.404 104.05 175.821 104.916C176.242 105.783 176.808 106.438 177.518 106.884C178.233 107.329 179.031 107.551 179.911 107.551C180.394 107.551 180.858 107.485 181.304 107.352C181.749 107.22 182.153 107.023 182.518 106.763C182.887 106.498 183.2 106.173 183.456 105.79C183.716 105.402 183.898 104.956 184.002 104.455H185.764C185.631 105.198 185.39 105.863 185.039 106.45C184.689 107.037 184.253 107.537 183.733 107.949C183.212 108.356 182.627 108.666 181.978 108.879C181.334 109.092 180.645 109.199 179.911 109.199C178.671 109.199 177.568 108.896 176.602 108.29C175.636 107.684 174.876 106.822 174.322 105.705C173.768 104.587 173.491 103.261 173.491 101.727C173.491 100.193 173.768 98.8674 174.322 97.75C174.876 96.6326 175.636 95.7708 176.602 95.1648C177.568 94.5587 178.671 94.2557 179.911 94.2557C180.645 94.2557 181.334 94.3622 181.978 94.5753C182.627 94.7884 183.212 95.1009 183.733 95.5128C184.253 95.92 184.689 96.4171 185.039 97.0043C185.39 97.5866 185.631 98.2519 185.764 99ZM192.815 109.227C191.83 109.227 190.966 108.993 190.222 108.524C189.484 108.055 188.906 107.4 188.489 106.557C188.077 105.714 187.871 104.729 187.871 103.602C187.871 102.466 188.077 101.474 188.489 100.626C188.906 99.7789 189.484 99.1207 190.222 98.652C190.966 98.1832 191.83 97.9489 192.815 97.9489C193.799 97.9489 194.661 98.1832 195.4 98.652C196.143 99.1207 196.721 99.7789 197.133 100.626C197.549 101.474 197.758 102.466 197.758 103.602C197.758 104.729 197.549 105.714 197.133 106.557C196.721 107.4 196.143 108.055 195.4 108.524C194.661 108.993 193.799 109.227 192.815 109.227ZM192.815 107.722C193.563 107.722 194.178 107.53 194.661 107.146C195.144 106.763 195.502 106.259 195.734 105.634C195.966 105.009 196.082 104.331 196.082 103.602C196.082 102.873 195.966 102.194 195.734 101.564C195.502 100.934 195.144 100.425 194.661 100.037C194.178 99.6487 193.563 99.4545 192.815 99.4545C192.066 99.4545 191.451 99.6487 190.968 100.037C190.485 100.425 190.128 100.934 189.896 101.564C189.664 102.194 189.547 102.873 189.547 103.602C189.547 104.331 189.664 105.009 189.896 105.634C190.128 106.259 190.485 106.763 190.968 107.146C191.451 107.53 192.066 107.722 192.815 107.722ZM201.992 102.438V109H200.316V98.0909H201.936V99.7955H202.078C202.333 99.2415 202.722 98.7964 203.242 98.4602C203.763 98.1193 204.436 97.9489 205.259 97.9489C205.998 97.9489 206.644 98.1004 207.198 98.4034C207.752 98.7017 208.183 99.1562 208.491 99.767C208.799 100.373 208.953 101.14 208.953 102.068V109H207.277V102.182C207.277 101.325 207.054 100.657 206.609 100.179C206.164 99.696 205.553 99.4545 204.777 99.4545C204.242 99.4545 203.763 99.5705 203.342 99.8026C202.925 100.035 202.596 100.373 202.355 100.818C202.113 101.263 201.992 101.803 201.992 102.438ZM216.76 98.0909V99.5114H211.106V98.0909H216.76ZM212.754 95.4773H214.43V105.875C214.43 106.348 214.499 106.704 214.636 106.94C214.778 107.172 214.958 107.329 215.176 107.409C215.399 107.485 215.633 107.523 215.879 107.523C216.064 107.523 216.215 107.513 216.334 107.494C216.452 107.471 216.547 107.452 216.618 107.438L216.959 108.943C216.845 108.986 216.686 109.028 216.483 109.071C216.279 109.118 216.021 109.142 215.709 109.142C215.235 109.142 214.771 109.04 214.317 108.837C213.867 108.633 213.493 108.323 213.195 107.906C212.901 107.49 212.754 106.964 212.754 106.33V95.4773ZM223.738 109.227C222.687 109.227 221.78 108.995 221.018 108.531C220.26 108.062 219.675 107.409 219.263 106.571C218.856 105.728 218.653 104.748 218.653 103.631C218.653 102.513 218.856 101.528 219.263 100.676C219.675 99.8191 220.248 99.1515 220.982 98.6733C221.721 98.1903 222.583 97.9489 223.567 97.9489C224.136 97.9489 224.697 98.0436 225.251 98.233C225.805 98.4223 226.309 98.7301 226.763 99.1562C227.218 99.5777 227.58 100.136 227.85 100.832C228.12 101.528 228.255 102.385 228.255 103.403V104.114H219.846V102.665H226.55C226.55 102.049 226.427 101.5 226.181 101.017C225.94 100.534 225.594 100.153 225.144 99.8736C224.699 99.5942 224.173 99.4545 223.567 99.4545C222.9 99.4545 222.322 99.6203 221.834 99.9517C221.351 100.278 220.98 100.705 220.719 101.23C220.459 101.756 220.329 102.319 220.329 102.92V103.886C220.329 104.71 220.471 105.409 220.755 105.982C221.044 106.55 221.444 106.983 221.955 107.281C222.467 107.575 223.061 107.722 223.738 107.722C224.178 107.722 224.576 107.66 224.931 107.537C225.291 107.409 225.601 107.22 225.861 106.969C226.122 106.713 226.323 106.396 226.465 106.017L228.084 106.472C227.914 107.021 227.628 107.504 227.225 107.92C226.823 108.332 226.325 108.654 225.734 108.886C225.142 109.114 224.476 109.227 223.738 109.227ZM232.481 102.438V109H230.805V98.0909H232.424V99.7955H232.566C232.822 99.2415 233.21 98.7964 233.731 98.4602C234.252 98.1193 234.924 97.9489 235.748 97.9489C236.486 97.9489 237.133 98.1004 237.687 98.4034C238.241 98.7017 238.672 99.1562 238.979 99.767C239.287 100.373 239.441 101.14 239.441 102.068V109H237.765V102.182C237.765 101.325 237.542 100.657 237.097 100.179C236.652 99.696 236.041 99.4545 235.265 99.4545C234.73 99.4545 234.252 99.5705 233.83 99.8026C233.414 100.035 233.084 100.373 232.843 100.818C232.601 101.263 232.481 101.803 232.481 102.438ZM247.248 98.0909V99.5114H241.595V98.0909H247.248ZM243.242 95.4773H244.919V105.875C244.919 106.348 244.987 106.704 245.125 106.94C245.267 107.172 245.447 107.329 245.664 107.409C245.887 107.485 246.121 107.523 246.367 107.523C246.552 107.523 246.704 107.513 246.822 107.494C246.94 107.471 247.035 107.452 247.106 107.438L247.447 108.943C247.333 108.986 247.175 109.028 246.971 109.071C246.768 109.118 246.509 109.142 246.197 109.142C245.724 109.142 245.259 109.04 244.805 108.837C244.355 108.633 243.981 108.323 243.683 107.906C243.389 107.49 243.242 106.964 243.242 106.33V95.4773ZM259.514 109.227C258.605 109.227 257.802 108.998 257.106 108.538C256.41 108.074 255.866 107.421 255.473 106.578C255.08 105.731 254.883 104.729 254.883 103.574C254.883 102.428 255.08 101.434 255.473 100.591C255.866 99.7481 256.412 99.0971 257.113 98.6378C257.814 98.1785 258.624 97.9489 259.542 97.9489C260.252 97.9489 260.813 98.0672 261.225 98.304C261.642 98.536 261.959 98.8011 262.177 99.0994C262.4 99.393 262.572 99.6345 262.696 99.8239H262.838V94.4545H264.514V109H262.894V107.324H262.696C262.572 107.523 262.397 107.774 262.17 108.077C261.943 108.375 261.618 108.643 261.197 108.879C260.776 109.111 260.215 109.227 259.514 109.227ZM259.741 107.722C260.413 107.722 260.982 107.546 261.446 107.196C261.91 106.841 262.262 106.351 262.504 105.726C262.745 105.096 262.866 104.369 262.866 103.545C262.866 102.731 262.748 102.018 262.511 101.408C262.274 100.792 261.924 100.314 261.46 99.973C260.996 99.6274 260.423 99.4545 259.741 99.4545C259.031 99.4545 258.439 99.6368 257.965 100.001C257.497 100.361 257.144 100.851 256.907 101.472C256.675 102.087 256.559 102.778 256.559 103.545C256.559 104.322 256.678 105.027 256.914 105.662C257.156 106.292 257.511 106.794 257.98 107.168C258.453 107.537 259.04 107.722 259.741 107.722ZM272.39 109.227C271.339 109.227 270.432 108.995 269.67 108.531C268.912 108.062 268.328 107.409 267.916 106.571C267.509 105.728 267.305 104.748 267.305 103.631C267.305 102.513 267.509 101.528 267.916 100.676C268.328 99.8191 268.901 99.1515 269.634 98.6733C270.373 98.1903 271.235 97.9489 272.22 97.9489C272.788 97.9489 273.349 98.0436 273.903 98.233C274.457 98.4223 274.961 98.7301 275.416 99.1562C275.87 99.5777 276.233 100.136 276.502 100.832C276.772 101.528 276.907 102.385 276.907 103.403V104.114H268.498V102.665H275.203C275.203 102.049 275.08 101.5 274.833 101.017C274.592 100.534 274.246 100.153 273.796 99.8736C273.351 99.5942 272.826 99.4545 272.22 99.4545C271.552 99.4545 270.974 99.6203 270.487 99.9517C270.004 100.278 269.632 100.705 269.372 101.23C269.111 101.756 268.981 102.319 268.981 102.92V103.886C268.981 104.71 269.123 105.409 269.407 105.982C269.696 106.55 270.096 106.983 270.608 107.281C271.119 107.575 271.713 107.722 272.39 107.722C272.831 107.722 273.228 107.66 273.583 107.537C273.943 107.409 274.253 107.22 274.514 106.969C274.774 106.713 274.975 106.396 275.117 106.017L276.737 106.472C276.566 107.021 276.28 107.504 275.877 107.92C275.475 108.332 274.978 108.654 274.386 108.886C273.794 109.114 273.129 109.227 272.39 109.227ZM287.184 100.534L285.679 100.96C285.584 100.709 285.444 100.465 285.259 100.229C285.08 99.9872 284.833 99.7884 284.521 99.6321C284.208 99.4759 283.808 99.3977 283.321 99.3977C282.653 99.3977 282.097 99.5516 281.652 99.8594C281.211 100.162 280.991 100.548 280.991 101.017C280.991 101.434 281.143 101.763 281.446 102.004C281.749 102.246 282.222 102.447 282.866 102.608L284.485 103.006C285.461 103.242 286.188 103.605 286.666 104.092C287.144 104.575 287.383 105.198 287.383 105.96C287.383 106.585 287.203 107.144 286.843 107.636C286.488 108.129 285.991 108.517 285.352 108.801C284.713 109.085 283.969 109.227 283.122 109.227C282.009 109.227 281.088 108.986 280.359 108.503C279.63 108.02 279.168 107.314 278.974 106.386L280.565 105.989C280.716 106.576 281.003 107.016 281.424 107.31C281.85 107.603 282.407 107.75 283.093 107.75C283.875 107.75 284.495 107.584 284.954 107.253C285.418 106.917 285.65 106.514 285.65 106.045C285.65 105.667 285.518 105.349 285.252 105.094C284.987 104.833 284.58 104.639 284.031 104.511L282.213 104.085C281.214 103.848 280.48 103.482 280.011 102.984C279.547 102.482 279.315 101.855 279.315 101.102C279.315 100.487 279.488 99.9422 279.833 99.4688C280.184 98.9953 280.66 98.6236 281.261 98.3537C281.867 98.0838 282.554 97.9489 283.321 97.9489C284.4 97.9489 285.248 98.1856 285.863 98.6591C286.483 99.1326 286.924 99.7576 287.184 100.534ZM289.906 109V98.0909H291.582V109H289.906ZM290.758 96.2727C290.432 96.2727 290.15 96.1615 289.913 95.9389C289.681 95.7164 289.565 95.4489 289.565 95.1364C289.565 94.8239 289.681 94.5563 289.913 94.3338C290.15 94.1113 290.432 94 290.758 94C291.085 94 291.364 94.1113 291.597 94.3338C291.833 94.5563 291.952 94.8239 291.952 95.1364C291.952 95.4489 291.833 95.7164 291.597 95.9389C291.364 96.1615 291.085 96.2727 290.758 96.2727ZM299.056 113.318C298.246 113.318 297.55 113.214 296.968 113.006C296.385 112.802 295.9 112.532 295.512 112.196C295.128 111.865 294.823 111.509 294.595 111.131L295.931 110.193C296.082 110.392 296.274 110.619 296.506 110.875C296.738 111.135 297.055 111.36 297.458 111.55C297.865 111.744 298.398 111.841 299.056 111.841C299.936 111.841 300.663 111.628 301.236 111.202C301.809 110.776 302.095 110.108 302.095 109.199V106.983H301.953C301.83 107.182 301.655 107.428 301.428 107.722C301.205 108.01 300.883 108.268 300.462 108.496C300.045 108.718 299.482 108.83 298.772 108.83C297.891 108.83 297.1 108.621 296.399 108.205C295.703 107.788 295.152 107.182 294.745 106.386C294.342 105.591 294.141 104.625 294.141 103.489C294.141 102.371 294.337 101.398 294.73 100.57C295.123 99.7363 295.67 99.0923 296.371 98.6378C297.072 98.1785 297.881 97.9489 298.8 97.9489C299.51 97.9489 300.074 98.0672 300.49 98.304C300.912 98.536 301.234 98.8011 301.456 99.0994C301.684 99.393 301.859 99.6345 301.982 99.8239H302.152V98.0909H303.772V109.312C303.772 110.25 303.559 111.012 303.132 111.599C302.711 112.191 302.143 112.625 301.428 112.899C300.718 113.179 299.927 113.318 299.056 113.318ZM298.999 107.324C299.671 107.324 300.239 107.17 300.703 106.862C301.167 106.554 301.52 106.112 301.762 105.534C302.003 104.956 302.124 104.265 302.124 103.46C302.124 102.674 302.005 101.981 301.769 101.379C301.532 100.778 301.182 100.307 300.718 99.9659C300.254 99.625 299.681 99.4545 298.999 99.4545C298.289 99.4545 297.697 99.6345 297.223 99.9943C296.755 100.354 296.402 100.837 296.165 101.443C295.933 102.049 295.817 102.722 295.817 103.46C295.817 104.218 295.935 104.888 296.172 105.47C296.414 106.048 296.769 106.502 297.237 106.834C297.711 107.161 298.298 107.324 298.999 107.324ZM308.516 102.438V109H306.84V98.0909H308.459V99.7955H308.601C308.857 99.2415 309.245 98.7964 309.766 98.4602C310.287 98.1193 310.959 97.9489 311.783 97.9489C312.522 97.9489 313.168 98.1004 313.722 98.4034C314.276 98.7017 314.707 99.1562 315.014 99.767C315.322 100.373 315.476 101.14 315.476 102.068V109H313.8V102.182C313.8 101.325 313.577 100.657 313.132 100.179C312.687 99.696 312.076 99.4545 311.3 99.4545C310.765 99.4545 310.287 99.5705 309.865 99.8026C309.449 100.035 309.12 100.373 308.878 100.818C308.637 101.263 308.516 101.803 308.516 102.438ZM328.908 98.0909V99.5114H323.255V98.0909H328.908ZM324.903 95.4773H326.579V105.875C326.579 106.348 326.647 106.704 326.785 106.94C326.927 107.172 327.107 107.329 327.324 107.409C327.547 107.485 327.781 107.523 328.028 107.523C328.212 107.523 328.364 107.513 328.482 107.494C328.601 107.471 328.695 107.452 328.766 107.438L329.107 108.943C328.994 108.986 328.835 109.028 328.631 109.071C328.428 109.118 328.17 109.142 327.857 109.142C327.384 109.142 326.92 109.04 326.465 108.837C326.015 108.633 325.641 108.323 325.343 107.906C325.049 107.49 324.903 106.964 324.903 106.33V95.4773ZM335.886 109.227C334.835 109.227 333.928 108.995 333.166 108.531C332.409 108.062 331.824 107.409 331.412 106.571C331.005 105.728 330.801 104.748 330.801 103.631C330.801 102.513 331.005 101.528 331.412 100.676C331.824 99.8191 332.397 99.1515 333.131 98.6733C333.869 98.1903 334.731 97.9489 335.716 97.9489C336.284 97.9489 336.845 98.0436 337.399 98.233C337.953 98.4223 338.457 98.7301 338.912 99.1562C339.366 99.5777 339.729 100.136 339.998 100.832C340.268 101.528 340.403 102.385 340.403 103.403V104.114H331.994V102.665H338.699C338.699 102.049 338.576 101.5 338.329 101.017C338.088 100.534 337.742 100.153 337.293 99.8736C336.847 99.5942 336.322 99.4545 335.716 99.4545C335.048 99.4545 334.471 99.6203 333.983 99.9517C333.5 100.278 333.128 100.705 332.868 101.23C332.607 101.756 332.477 102.319 332.477 102.92V103.886C332.477 104.71 332.619 105.409 332.903 105.982C333.192 106.55 333.592 106.983 334.104 107.281C334.615 107.575 335.209 107.722 335.886 107.722C336.327 107.722 336.724 107.66 337.079 107.537C337.439 107.409 337.749 107.22 338.01 106.969C338.27 106.713 338.472 106.396 338.614 106.017L340.233 106.472C340.062 107.021 339.776 107.504 339.373 107.92C338.971 108.332 338.474 108.654 337.882 108.886C337.29 109.114 336.625 109.227 335.886 109.227ZM346.163 109.256C345.472 109.256 344.845 109.125 344.281 108.865C343.718 108.6 343.27 108.219 342.939 107.722C342.607 107.22 342.442 106.614 342.442 105.903C342.442 105.278 342.565 104.772 342.811 104.384C343.057 103.991 343.386 103.683 343.798 103.46C344.21 103.238 344.665 103.072 345.162 102.963C345.664 102.849 346.168 102.759 346.675 102.693C347.338 102.608 347.875 102.544 348.287 102.501C348.704 102.454 349.007 102.376 349.196 102.267C349.39 102.158 349.487 101.969 349.487 101.699V101.642C349.487 100.941 349.295 100.397 348.912 100.009C348.533 99.6203 347.958 99.4261 347.186 99.4261C346.386 99.4261 345.758 99.6013 345.304 99.9517C344.849 100.302 344.53 100.676 344.345 101.074L342.754 100.506C343.038 99.8428 343.417 99.3267 343.891 98.9574C344.369 98.5833 344.89 98.3229 345.453 98.1761C346.021 98.0246 346.58 97.9489 347.129 97.9489C347.48 97.9489 347.882 97.9915 348.337 98.0767C348.796 98.1572 349.239 98.3253 349.665 98.581C350.096 98.8366 350.453 99.2225 350.737 99.7386C351.021 100.255 351.163 100.946 351.163 101.812V109H349.487V107.523H349.402C349.288 107.759 349.099 108.013 348.834 108.283C348.569 108.553 348.216 108.782 347.775 108.972C347.335 109.161 346.798 109.256 346.163 109.256ZM346.419 107.75C347.082 107.75 347.641 107.62 348.095 107.359C348.554 107.099 348.9 106.763 349.132 106.351C349.369 105.939 349.487 105.506 349.487 105.051V103.517C349.416 103.602 349.26 103.68 349.018 103.751C348.782 103.818 348.507 103.877 348.195 103.929C347.887 103.976 347.586 104.019 347.293 104.057C347.004 104.09 346.769 104.118 346.589 104.142C346.154 104.199 345.747 104.291 345.368 104.419C344.994 104.542 344.691 104.729 344.459 104.98C344.231 105.226 344.118 105.562 344.118 105.989C344.118 106.571 344.333 107.011 344.764 107.31C345.2 107.603 345.751 107.75 346.419 107.75ZM354.223 109V98.0909H355.842V99.7955H355.984C356.211 99.2131 356.578 98.7609 357.085 98.4389C357.591 98.1122 358.2 97.9489 358.91 97.9489C359.63 97.9489 360.229 98.1122 360.707 98.4389C361.19 98.7609 361.566 99.2131 361.836 99.7955H361.95C362.229 99.232 362.648 98.7846 363.207 98.4531C363.766 98.117 364.436 97.9489 365.217 97.9489C366.192 97.9489 366.99 98.2543 367.61 98.8651C368.231 99.4711 368.541 100.416 368.541 101.699V109H366.865V101.699C366.865 100.894 366.644 100.319 366.204 99.973C365.764 99.6274 365.245 99.4545 364.649 99.4545C363.882 99.4545 363.287 99.6866 362.866 100.151C362.445 100.61 362.234 101.192 362.234 101.898V109H360.529V101.528C360.529 100.908 360.328 100.409 359.926 100.03C359.523 99.6463 359.005 99.4545 358.37 99.4545C357.935 99.4545 357.527 99.5705 357.149 99.8026C356.775 100.035 356.472 100.357 356.24 100.768C356.012 101.176 355.899 101.647 355.899 102.182V109H354.223Z" fill="white" fill-opacity="0.7"/>
<g clip-path="url(#clip0_39_223)">
<path d="M92.1381 79.4233C92.1381 79.4233 95.832 77.4152 96.8352 76.8099C98.9274 75.5566 100.381 73.7011 101.268 71.4171C101.9 69.991 102.222 68.4392 102.21 66.871C102.199 65.3028 101.854 63.7563 101.2 62.3405C98.9186 56.6991 92.5193 53.8693 86.9342 56.0481C85.2054 56.722 83.9067 57.9692 82.5651 59.1646C68.4427 71.7495 1.12114 133.625 0.973389 134C1.23639 133.787 92.1381 79.4233 92.1381 79.4233Z" fill="white"/>
<path d="M81.9002 55.3802C83.6733 53.8982 84.7371 53.5338 85.8275 53.0185C86.9741 52.4772 88.4664 52.2378 88.5093 52.1753C72.4868 42.7618 1.05176 0 1.05176 0C1.05176 0 61.1614 55.0006 71.646 64.6108C71.7628 64.5163 77.831 59.0914 77.831 59.0914C77.831 59.0914 80.9575 56.1655 81.9002 55.3802Z" fill="white"/>
<path d="M23.4291 24.9548L1.0354 4.49329V129.267L23.4291 108.806V24.9548Z" fill="white"/>
</g>
<defs>
<clipPath id="clip0_39_223">
<rect width="102.211" height="134" fill="white"/>
</clipPath>
</defs>
</svg>
