<svg width="329" height="329" viewBox="0 0 329 329" fill="none" xmlns="http://www.w3.org/2000/svg">
<path fill-rule="evenodd" clip-rule="evenodd" d="M0 10C0 4.47716 4.47715 0 10 0H319C324.523 0 329 4.47715 329 10V319C329 324.523 324.523 329 319 329H10C4.47716 329 0 324.523 0 319V10ZM129.215 226L118.98 197.367H125.25L132.496 218.559L139.508 197.367H145.641L135.387 226H129.215ZM147.809 202.445V197.367H153.297V202.445H147.809ZM147.809 226V205.258H153.297V226H147.809ZM170.953 219.398L176.422 220.316C175.719 222.322 174.605 223.852 173.082 224.906C171.572 225.948 169.677 226.469 167.398 226.469C163.792 226.469 161.122 225.29 159.391 222.934C158.023 221.046 157.34 218.663 157.34 215.785C157.34 212.348 158.238 209.659 160.035 207.719C161.832 205.766 164.104 204.789 166.852 204.789C169.938 204.789 172.372 205.811 174.156 207.855C175.94 209.887 176.793 213.005 176.715 217.211H162.965C163.004 218.839 163.447 220.108 164.293 221.02C165.139 221.918 166.194 222.367 167.457 222.367C168.316 222.367 169.039 222.133 169.625 221.664C170.211 221.195 170.654 220.44 170.953 219.398ZM171.266 213.852C171.227 212.263 170.816 211.059 170.035 210.238C169.254 209.405 168.303 208.988 167.184 208.988C165.986 208.988 164.996 209.424 164.215 210.297C163.434 211.169 163.049 212.354 163.062 213.852H171.266ZM185.074 226L178.512 205.258H183.844L187.73 218.852L191.305 205.258H196.598L200.055 218.852L204.02 205.258H209.43L202.77 226H197.496L193.922 212.66L190.406 226H185.074ZM187.737 111.961H177.941C177.763 111.961 177.584 111.963 177.405 111.965H177.404C176.92 111.97 176.436 111.976 175.953 111.941C173.21 111.743 171.654 109.986 171.74 107.237C171.821 104.676 173.536 103.02 176.215 103H198.726C201.19 103 202.989 104.838 202.992 107.332C203.003 114.764 203.003 122.198 202.992 129.633C202.992 132.496 201.316 134.231 198.589 134.253C195.796 134.278 194.081 132.563 194.05 129.653C194.026 127.418 194.034 125.184 194.042 122.949C194.046 121.832 194.05 120.714 194.05 119.597V118.284C193.982 118.348 193.918 118.407 193.857 118.463C193.778 118.535 193.705 118.602 193.636 118.664C193.405 118.875 193.226 119.039 193.056 119.209C185.553 126.708 178.049 134.208 170.545 141.711C168.366 143.884 165.425 143.714 163.668 141.353C163.074 140.587 162.762 139.64 162.782 138.671C162.803 137.702 163.156 136.77 163.782 136.03C164.077 135.685 164.389 135.356 164.718 135.044C172.07 127.686 179.426 120.331 186.785 112.977C186.89 112.867 186.995 112.754 187.115 112.624L187.116 112.624C187.281 112.446 187.476 112.237 187.737 111.961ZM136.006 116.407V169.989H189.589V168.919V152.373C189.589 149.099 191.908 147.213 195.117 147.828C195.952 147.961 196.723 148.358 197.315 148.962C197.907 149.565 198.29 150.343 198.408 151.18C198.497 151.734 198.54 152.294 198.536 152.856V169.403C198.536 175.249 194.746 179.025 188.894 179.028H136.645C130.799 178.994 127 175.21 127 169.372V117.117C127 111.251 130.774 107.469 136.612 107.469C138.496 107.469 140.381 107.467 142.265 107.465H142.266H142.27C146.039 107.46 149.808 107.456 153.575 107.469C156.927 107.486 158.821 109.799 158.179 113.056C157.768 115.139 156.128 116.407 153.76 116.407C150.084 116.419 146.41 116.415 142.735 116.411H142.729C140.89 116.409 139.051 116.407 137.212 116.407H136.006Z" fill="white" fill-opacity="0.2"/>
</svg>
